<svg width="1440" height="950" viewBox="0 0 1440 950" fill="none" xmlns="http://www.w3.org/2000/svg">
<g clip-path="url(#clip0_159_38)">
<rect width="1440" height="950" fill="#0B0B0B"/>
<g opacity="0.6">
<g filter="url(#filter0_f_159_38)">
<ellipse cx="544" cy="-50.3376" rx="897" ry="587" transform="rotate(-26.7736 544 -50.3376)" fill="#00454A"/>
</g>
<g filter="url(#filter1_f_159_38)">
<ellipse cx="544" cy="-50.3376" rx="897" ry="587" fill="#00454A"/>
</g>
<g filter="url(#filter2_f_159_38)">
<ellipse cx="544" cy="-50.3376" rx="897" ry="587" fill="#C7F664"/>
</g>
<g filter="url(#filter3_f_159_38)">
<ellipse cx="601" cy="-240.338" rx="626" ry="519" fill="#111111"/>
</g>
<g filter="url(#filter4_f_159_38)">
<ellipse cx="673.206" cy="-231.338" rx="695" ry="576" transform="rotate(-50.2698 673.206 -231.338)" fill="black"/>
</g>
<g filter="url(#filter5_f_159_38)">
<ellipse cx="672" cy="-299.338" rx="555" ry="460" fill="#111111"/>
</g>
</g>
<g opacity="0.08" filter="url(#filter6_d_159_38)">
<path d="M913.996 0V3.8M913.996 15.2029V47.5043M913.996 47.5043V142.501M913.996 47.5043H816.998M913.996 47.5043H1011M913.996 142.501V237.5M913.996 142.501H816.998M913.996 142.501H1011M913.996 237.5V332.499M913.996 237.5H816.998M913.996 237.5H1011M913.996 332.499V427.496M913.996 332.499H816.998M913.996 332.499H1011M913.996 427.496V522.504M913.996 427.496H816.998M913.996 427.496H1011M913.996 522.504V617.501M913.996 522.504H816.998M913.996 522.504H1011M913.996 617.501V712.5M913.996 617.501H816.998M913.996 617.501H1011M913.996 712.5V807.499M913.996 712.5H816.998M913.996 712.5H1011M913.996 807.499V902.496M913.996 807.499H816.998M913.996 807.499H1011M913.996 902.496V940.503M913.996 902.496H816.998M913.996 902.496H1011M913.996 946.201V950.001M816.998 0V3.8M816.998 15.2029V47.5043M816.998 47.5043V142.501M816.998 47.5043H720M816.998 142.501V237.5M816.998 142.501H720M816.998 237.5V332.499M816.998 237.5H720M816.998 332.499V427.496M816.998 332.499H720M816.998 427.496V522.504M816.998 427.496H720M816.998 522.504V617.501M816.998 522.504H720M816.998 617.501V712.5M816.998 617.501H720M816.998 712.5V807.499M816.998 712.5H720M816.998 807.499V902.496M816.998 807.499H720M816.998 902.496V940.503M816.998 902.496H720M816.998 946.201V950.001M720 0V3.8M720 15.2029V47.5043M720 47.5043V142.501M720 47.5043H623.002M720 142.501V237.5M720 142.501H623.002M720 237.5V332.499M720 237.5H623.002M720 332.499V427.496M720 332.499H623.002M720 427.496V522.504M720 427.496H623.002M720 522.504V617.501M720 522.504H623.002M720 617.501V712.5M720 617.501H623.002M720 712.5V807.499M720 712.5H623.002M720 807.499V902.496M720 807.499H623.002M720 902.496V940.503M720 902.496H623.002M720 946.201V950.001M623.002 0V3.8M623.002 15.2029V47.5043M623.002 47.5043V142.501M623.002 47.5043H526.004M623.002 142.501V237.5M623.002 142.501H526.004M623.002 237.5V332.499M623.002 237.5H526.004M623.002 332.499V427.496M623.002 332.499H526.004M623.002 427.496V522.504M623.002 427.496H526.004M623.002 522.504V617.501M623.002 522.504H526.004M623.002 617.501V712.5M623.002 617.501H526.004M623.002 712.5V807.499M623.002 712.5H526.004M623.002 807.499V902.496M623.002 807.499H526.004M623.002 902.496V940.503M623.002 902.496H526.004M623.002 946.201V950.001M526.004 0V3.8M526.004 15.2029V47.5043M526.004 47.5043V142.501M526.004 47.5043H428.995M526.004 142.501V237.5M526.004 142.501H428.995M526.004 237.5V332.499M526.004 237.5H428.995M526.004 332.499V427.496M526.004 332.499H428.995M526.004 427.496V522.504M526.004 427.496H428.995M526.004 522.504V617.501M526.004 522.504H428.995M526.004 617.501V712.5M526.004 617.501H428.995M526.004 712.5V807.499M526.004 712.5H428.995M526.004 807.499V902.496M526.004 807.499H428.995M526.004 902.496V940.503M526.004 902.496H428.995M526.004 946.201V950.001M428.995 0V3.8M428.995 15.2029V47.5043M428.995 47.5043V142.501M428.995 47.5043H331.999M428.995 142.501V237.5M428.995 142.501H331.999M428.995 237.5V332.499M428.995 237.5H331.999M428.995 332.499V427.496M428.995 332.499H331.999M428.995 427.496V522.504M428.995 427.496H331.999M428.995 522.504V617.501M428.995 522.504H331.999M428.995 617.501V712.5M428.995 617.501H331.999M428.995 712.5V807.499M428.995 712.5H331.999M428.995 807.499V902.496M428.995 807.499H331.999M428.995 902.496V940.503M428.995 902.496H331.999M428.995 946.201V950.001M331.999 0V3.8M331.999 15.2029V47.5043M331.999 47.5043V142.501M331.999 47.5043H235.001M331.999 142.501V237.5M331.999 142.501H235.001M331.999 237.5V332.499M331.999 237.5H235.001M331.999 332.499V427.496M331.999 332.499H235.001M331.999 427.496V522.504M331.999 427.496H235.001M331.999 522.504V617.501M331.999 522.504H235.001M331.999 617.501V712.5M331.999 617.501H235.001M331.999 712.5V807.499M331.999 712.5H235.001M331.999 807.499V902.496M331.999 807.499H235.001M331.999 902.496V940.503M331.999 902.496H235.001M331.999 946.201V950.001M235.001 0V3.8M235.001 15.2029V47.5043M235.001 47.5043V142.501M235.001 47.5043H138M235.001 142.501V237.5M235.001 142.501H138M235.001 237.5V332.499M235.001 237.5H138M235.001 332.499V427.496M235.001 332.499H138M235.001 427.496V522.504M235.001 427.496H138M235.001 522.504V617.501M235.001 522.504H138M235.001 617.501V712.5M235.001 617.501H138M235.001 712.5V807.499M235.001 712.5H138M235.001 807.499V902.496M235.001 807.499H138M235.001 902.496V940.503M235.001 902.496H138M235.001 946.201V950.001M138 0V3.8M138 15.2029V47.5043M138 47.5043V142.501M138 47.5043H41.0022M138 142.501V237.5M138 142.501H41.0022M138 237.5V332.499M138 237.5H41.0022M138 332.499V427.496M138 332.499H41.0022M138 427.496V522.504M138 427.496H41.0022M138 522.504V617.501M138 522.504H41.0022M138 617.501V712.5M138 617.501H41.0022M138 712.5V807.499M138 712.5H41.0022M138 807.499V902.496M138 807.499H41.0022M138 902.496V940.503M138 902.496H41.0022M138 946.201V950.001M41.0022 0V3.8M41.0022 15.2029V47.5043M41.0022 47.5043V142.501M41.0022 47.5043H8.02184M41.0022 142.501V237.5M41.0022 142.501H8.02184M41.0022 237.5V332.499M41.0022 237.5H8.02184M41.0022 332.499V427.496M41.0022 332.499H8.02184M41.0022 427.496V522.504M41.0022 427.496H8.02184M41.0022 522.504V617.501M41.0022 522.504H8.02184M41.0022 617.501V712.5M41.0022 617.501H8.02184M41.0022 712.5V807.499M41.0022 712.5H8.02184M41.0022 807.499V902.496M41.0022 807.499H8.02184M41.0022 902.496V940.503M41.0022 902.496H8.02184M41.0022 946.201V950.001M1399 0V3.8M1399 15.2029V47.5043M1399 47.5043V142.501M1399 47.5043H1302M1399 47.5043H1437.8M1399 142.501V237.5M1399 142.501H1302M1399 142.501H1437.8M1399 237.5V332.499M1399 237.5H1302M1399 237.5H1437.8M1399 332.499V427.496M1399 332.499H1302M1399 332.499H1437.8M1399 427.496V522.504M1399 427.496H1302M1399 427.496H1437.8M1399 522.504V617.501M1399 522.504H1302M1399 522.504H1437.8M1399 617.501V712.5M1399 617.501H1302M1399 617.501H1437.8M1399 712.5V807.499M1399 712.5H1302M1399 712.5H1437.8M1399 807.499V902.496M1399 807.499H1302M1399 807.499H1437.8M1399 902.496V940.503M1399 902.496H1302M1399 902.496H1437.8M1399 946.201V950.001M1302 0V3.8M1302 15.2029V47.5043M1302 47.5043V142.501M1302 47.5043H1205M1302 142.501V237.5M1302 142.501H1205M1302 237.5V332.499M1302 237.5H1205M1302 332.499V427.496M1302 332.499H1205M1302 427.496V522.504M1302 427.496H1205M1302 522.504V617.501M1302 522.504H1205M1302 617.501V712.5M1302 617.501H1205M1302 712.5V807.499M1302 712.5H1205M1302 807.499V902.496M1302 807.499H1205M1302 902.496V940.503M1302 902.496H1205M1302 946.201V950.001M1205 0V3.8M1205 15.2029V47.5043M1205 47.5043V142.501M1205 47.5043H1108M1205 142.501V237.5M1205 142.501H1108M1205 237.5V332.499M1205 237.5H1108M1205 332.499V427.496M1205 332.499H1108M1205 427.496V522.504M1205 427.496H1108M1205 522.504V617.501M1205 522.504H1108M1205 617.501V712.5M1205 617.501H1108M1205 712.5V807.499M1205 712.5H1108M1205 807.499V902.496M1205 807.499H1108M1205 902.496V940.503M1205 902.496H1108M1205 946.201V950.001M1108 0V3.8M1108 15.2029V47.5043M1108 47.5043V142.501M1108 47.5043H1011M1108 142.501V237.5M1108 142.501H1011M1108 237.5V332.499M1108 237.5H1011M1108 332.499V427.496M1108 332.499H1011M1108 427.496V522.504M1108 427.496H1011M1108 522.504V617.501M1108 522.504H1011M1108 617.501V712.5M1108 617.501H1011M1108 712.5V807.499M1108 712.5H1011M1108 807.499V902.496M1108 807.499H1011M1108 902.496V940.503M1108 902.496H1011M1108 946.201V950.001M1011 0V3.8M1011 15.2029V47.5043M1011 47.5043V142.501M1011 142.501V237.5M1011 237.5V332.499M1011 332.499V427.496M1011 427.496V522.504M1011 522.504V617.501M1011 617.501V712.5M1011 712.5V807.499M1011 807.499V902.496M1011 902.496V940.503M1011 946.201V950.001M-7.5 142.501H-3.62M1443.62 142.501H1447.5M-7.5 47.5043H-3.62M1443.62 47.5043H1447.5M-7.5 237.5H-3.62M1443.62 237.5H1447.5M-7.5 332.499H-3.62M1443.62 332.499H1447.5M-7.5 427.496H-3.62M1443.62 427.496H1447.5M-7.5 522.504H-3.62M1443.62 522.504H1447.5M-7.5 617.501H-3.62M1443.62 617.501H1447.5M-7.5 712.5H-3.62M1443.62 712.5H1447.5M-7.5 807.499H-3.62M1443.62 807.499H1447.5M-7.5 902.496H-3.62M1443.62 902.496H1447.5M-7.5 94.9988H89.4982M89.4982 94.9988H186.501M89.4982 94.9988V0M89.4982 94.9988V190.001M186.501 94.9988H283.499M186.501 94.9988V0M186.501 94.9988V190.001M283.499 94.9988H380.501M283.499 94.9988V0M283.499 94.9988V190.001M380.501 94.9988H477.499M380.501 94.9988V0M380.501 94.9988V190.001M477.499 94.9988H574.498M477.499 94.9988V0M477.499 94.9988V190.001M574.498 94.9988H671.502M574.498 94.9988V0M574.498 94.9988V190.001M671.502 94.9988H768.498M671.502 94.9988V0M671.502 94.9988V190.001M768.498 94.9988H865.502M768.498 94.9988V0M768.498 94.9988V190.001M865.502 94.9988H962.501M865.502 94.9988V0M865.502 94.9988V190.001M962.501 94.9988H1059.5M962.501 94.9988V0M962.501 94.9988V190.001M1059.5 94.9988H1156.5M1059.5 94.9988V0M1059.5 94.9988V190.001M1156.5 94.9988H1253.5M1156.5 94.9988V0M1156.5 94.9988V190.001M1253.5 94.9988H1350.5M1253.5 94.9988V0M1253.5 94.9988V190.001M1350.5 94.9988H1447.5M1350.5 94.9988V0M1350.5 94.9988V190.001M-7.5 190.001H89.4982M89.4982 190.001H186.501M89.4982 190.001V284.999M186.501 190.001H283.499M186.501 190.001V284.999M283.499 190.001H380.501M283.499 190.001V284.999M380.501 190.001H477.499M380.501 190.001V284.999M477.499 190.001H574.498M477.499 190.001V284.999M574.498 190.001H671.502M574.498 190.001V284.999M671.502 190.001H768.498M671.502 190.001V284.999M768.498 190.001H865.502M768.498 190.001V284.999M865.502 190.001H962.501M865.502 190.001V284.999M962.501 190.001H1059.5M962.501 190.001V284.999M1059.5 190.001H1156.5M1059.5 190.001V284.999M1156.5 190.001H1253.5M1156.5 190.001V284.999M1253.5 190.001H1350.5M1253.5 190.001V284.999M1350.5 190.001H1447.5M1350.5 190.001V284.999M-7.5 284.999H89.4982M89.4982 284.999H186.501M89.4982 284.999V380.001M186.501 284.999H283.499M186.501 284.999V380.001M283.499 284.999H380.501M283.499 284.999V380.001M380.501 284.999H477.499M380.501 284.999V380.001M477.499 284.999H574.498M477.499 284.999V380.001M574.498 284.999H671.502M574.498 284.999V380.001M671.502 284.999H768.498M671.502 284.999V380.001M768.498 284.999H865.502M768.498 284.999V380.001M865.502 284.999H962.501M865.502 284.999V380.001M962.501 284.999H1059.5M962.501 284.999V380.001M1059.5 284.999H1156.5M1059.5 284.999V380.001M1156.5 284.999H1253.5M1156.5 284.999V380.001M1253.5 284.999H1350.5M1253.5 284.999V380.001M1350.5 284.999H1447.5M1350.5 284.999V380.001M-7.5 380.001H89.4982M89.4982 380.001H186.501M89.4982 380.001V475M186.501 380.001H283.499M186.501 380.001V475M283.499 380.001H380.501M283.499 380.001V475M380.501 380.001H477.499M380.501 380.001V475M477.499 380.001H574.498M477.499 380.001V475M574.498 380.001H671.502M574.498 380.001V475M671.502 380.001H768.498M671.502 380.001V475M768.498 380.001H865.502M768.498 380.001V475M865.502 380.001H962.501M865.502 380.001V475M962.501 380.001H1059.5M962.501 380.001V475M1059.5 380.001H1156.5M1059.5 380.001V475M1156.5 380.001H1253.5M1156.5 380.001V475M1253.5 380.001H1350.5M1253.5 380.001V475M1350.5 380.001H1447.5M1350.5 380.001V475M-7.5 475H89.4982M89.4982 475H186.501M89.4982 475V569.999M186.501 475H283.499M186.501 475V569.999M283.499 475H380.501M283.499 475V569.999M380.501 475H477.499M380.501 475V569.999M477.499 475H574.498M477.499 475V569.999M574.498 475H671.502M574.498 475V569.999M671.502 475H768.498M671.502 475V569.999M768.498 475H865.502M768.498 475V569.999M865.502 475H962.501M865.502 475V569.999M962.501 475H1059.5M962.501 475V569.999M1059.5 475H1156.5M1059.5 475V569.999M1156.5 475H1253.5M1156.5 475V569.999M1253.5 475H1350.5M1253.5 475V569.999M1350.5 475H1447.5M1350.5 475V569.999M-7.5 569.999H89.4982M89.4982 569.999H186.501M89.4982 569.999V665.002M186.501 569.999H283.499M186.501 569.999V665.002M283.499 569.999H380.501M283.499 569.999V665.002M380.501 569.999H477.499M380.501 569.999V665.002M477.499 569.999H574.498M477.499 569.999V665.002M574.498 569.999H671.502M574.498 569.999V665.002M671.502 569.999H768.498M671.502 569.999V665.002M768.498 569.999H865.502M768.498 569.999V665.002M865.502 569.999H962.501M865.502 569.999V665.002M962.501 569.999H1059.5M962.501 569.999V665.002M1059.5 569.999H1156.5M1059.5 569.999V665.002M1156.5 569.999H1253.5M1156.5 569.999V665.002M1253.5 569.999H1350.5M1253.5 569.999V665.002M1350.5 569.999H1447.5M1350.5 569.999V665.002M-7.5 665.002H89.4982M89.4982 665.002H186.501M89.4982 665.002V759.998M186.501 665.002H283.499M186.501 665.002V759.998M283.499 665.002H380.501M283.499 665.002V759.998M380.501 665.002H477.499M380.501 665.002V759.998M477.499 665.002H574.498M477.499 665.002V759.998M574.498 665.002H671.502M574.498 665.002V759.998M671.502 665.002H768.498M671.502 665.002V759.998M768.498 665.002H865.502M768.498 665.002V759.998M865.502 665.002H962.501M865.502 665.002V759.998M962.501 665.002H1059.5M962.501 665.002V759.998M1059.5 665.002H1156.5M1059.5 665.002V759.998M1156.5 665.002H1253.5M1156.5 665.002V759.998M1253.5 665.002H1350.5M1253.5 665.002V759.998M1350.5 665.002H1447.5M1350.5 665.002V759.998M-7.5 759.998H89.4982M89.4982 759.998H186.501M89.4982 759.998V855.001M186.501 759.998H283.499M186.501 759.998V855.001M283.499 759.998H380.501M283.499 759.998V855.001M380.501 759.998H477.499M380.501 759.998V855.001M477.499 759.998H574.498M477.499 759.998V855.001M574.498 759.998H671.502M574.498 759.998V855.001M671.502 759.998H768.498M671.502 759.998V855.001M768.498 759.998H865.502M768.498 759.998V855.001M865.502 759.998H962.501M865.502 759.998V855.001M962.501 759.998H1059.5M962.501 759.998V855.001M1059.5 759.998H1156.5M1059.5 759.998V855.001M1156.5 759.998H1253.5M1156.5 759.998V855.001M1253.5 759.998H1350.5M1253.5 759.998V855.001M1350.5 759.998H1447.5M1350.5 759.998V855.001M-7.5 855.001H89.4982M89.4982 855.001H186.501M89.4982 855.001V950M186.501 855.001H283.499M186.501 855.001V950M283.499 855.001H380.501M283.499 855.001V950M380.501 855.001H477.499M380.501 855.001V950M477.499 855.001H574.498M477.499 855.001V950M574.498 855.001H671.502M574.498 855.001V950M671.502 855.001H768.498M671.502 855.001V950M768.498 855.001H865.502M768.498 855.001V950M865.502 855.001H962.501M865.502 855.001V950M962.501 855.001H1059.5M962.501 855.001V950M1059.5 855.001H1156.5M1059.5 855.001V950M1156.5 855.001H1253.5M1156.5 855.001V950M1253.5 855.001H1350.5M1253.5 855.001V950M1350.5 855.001H1447.5M1350.5 855.001V950" stroke="url(#paint0_linear_159_38)" stroke-width="1.488" stroke-miterlimit="10"/>
</g>
</g>
<defs>
<filter id="filter0_f_159_38" x="-599.59" y="-1012.13" width="2287.18" height="1923.58" filterUnits="userSpaceOnUse" color-interpolation-filters="sRGB">
<feFlood flood-opacity="0" result="BackgroundImageFix"/>
<feBlend mode="normal" in="SourceGraphic" in2="BackgroundImageFix" result="shape"/>
<feGaussianBlur stdDeviation="150" result="effect1_foregroundBlur_159_38"/>
</filter>
<filter id="filter1_f_159_38" x="-453" y="-737.338" width="1994" height="1374" filterUnits="userSpaceOnUse" color-interpolation-filters="sRGB">
<feFlood flood-opacity="0" result="BackgroundImageFix"/>
<feBlend mode="normal" in="SourceGraphic" in2="BackgroundImageFix" result="shape"/>
<feGaussianBlur stdDeviation="50" result="effect1_foregroundBlur_159_38"/>
</filter>
<filter id="filter2_f_159_38" x="-453" y="-737.338" width="1994" height="1374" filterUnits="userSpaceOnUse" color-interpolation-filters="sRGB">
<feFlood flood-opacity="0" result="BackgroundImageFix"/>
<feBlend mode="normal" in="SourceGraphic" in2="BackgroundImageFix" result="shape"/>
<feGaussianBlur stdDeviation="50" result="effect1_foregroundBlur_159_38"/>
</filter>
<filter id="filter3_f_159_38" x="-325" y="-1059.34" width="1852" height="1638" filterUnits="userSpaceOnUse" color-interpolation-filters="sRGB">
<feFlood flood-opacity="0" result="BackgroundImageFix"/>
<feBlend mode="normal" in="SourceGraphic" in2="BackgroundImageFix" result="shape"/>
<feGaussianBlur stdDeviation="150" result="effect1_foregroundBlur_159_38"/>
</filter>
<filter id="filter4_f_159_38" x="-254.144" y="-1180.42" width="1854.7" height="1898.17" filterUnits="userSpaceOnUse" color-interpolation-filters="sRGB">
<feFlood flood-opacity="0" result="BackgroundImageFix"/>
<feBlend mode="normal" in="SourceGraphic" in2="BackgroundImageFix" result="shape"/>
<feGaussianBlur stdDeviation="150" result="effect1_foregroundBlur_159_38"/>
</filter>
<filter id="filter5_f_159_38" x="-183" y="-1059.34" width="1710" height="1520" filterUnits="userSpaceOnUse" color-interpolation-filters="sRGB">
<feFlood flood-opacity="0" result="BackgroundImageFix"/>
<feBlend mode="normal" in="SourceGraphic" in2="BackgroundImageFix" result="shape"/>
<feGaussianBlur stdDeviation="150" result="effect1_foregroundBlur_159_38"/>
</filter>
<filter id="filter6_d_159_38" x="-11.5" y="0" width="1463" height="958.001" filterUnits="userSpaceOnUse" color-interpolation-filters="sRGB">
<feFlood flood-opacity="0" result="BackgroundImageFix"/>
<feColorMatrix in="SourceAlpha" type="matrix" values="0 0 0 0 0 0 0 0 0 0 0 0 0 0 0 0 0 0 127 0" result="hardAlpha"/>
<feOffset dy="4"/>
<feGaussianBlur stdDeviation="2"/>
<feComposite in2="hardAlpha" operator="out"/>
<feColorMatrix type="matrix" values="0 0 0 0 0 0 0 0 0 0 0 0 0 0 0 0 0 0 0.25 0"/>
<feBlend mode="normal" in2="BackgroundImageFix" result="effect1_dropShadow_159_38"/>
<feBlend mode="normal" in="SourceGraphic" in2="effect1_dropShadow_159_38" result="shape"/>
</filter>
<linearGradient id="paint0_linear_159_38" x1="-7.5" y1="0" x2="1226.34" y2="880.871" gradientUnits="userSpaceOnUse">
<stop stop-color="#ACACAC"/>
<stop offset="1" stop-color="#0B0B0B"/>
</linearGradient>
<clipPath id="clip0_159_38">
<rect width="1440" height="950" fill="white"/>
</clipPath>
</defs>
</svg>
